<?xml version="1.0" encoding="UTF-8" standalone="no"?>
<!-- Created with Inkscape (http://www.inkscape.org/) -->

<svg
   xmlns:dc="http://purl.org/dc/elements/1.1/"
   xmlns:cc="http://creativecommons.org/ns#"
   xmlns:rdf="http://www.w3.org/1999/02/22-rdf-syntax-ns#"
   xmlns:svg="http://www.w3.org/2000/svg"
   xmlns="http://www.w3.org/2000/svg"
   xmlns:sodipodi="http://sodipodi.sourceforge.net/DTD/sodipodi-0.dtd"
   xmlns:inkscape="http://www.inkscape.org/namespaces/inkscape"
   id="svg4155"
   version="1.1"
   inkscape:version="0.91 r13725"
   xml:space="preserve"
   width="744.09497"
   height="1052.3625"
   viewBox="0 0 744.09497 1052.3625"
   sodipodi:docname="logo_ffbin_sw_invertiert.svg"><metadata
     id="metadata4161"><rdf:RDF><cc:Work
         rdf:about=""><dc:format>image/svg+xml</dc:format><dc:type
           rdf:resource="http://purl.org/dc/dcmitype/StillImage" /><dc:title></dc:title></cc:Work></rdf:RDF></metadata><defs
     id="defs4159"><clipPath
       clipPathUnits="userSpaceOnUse"
       id="clipPath4169"><path
         d="m 0,0 595.276,0 0,841.89 L 0,841.89 0,0 Z"
         id="path4171"
         inkscape:connector-curvature="0" /></clipPath><clipPath
       clipPathUnits="userSpaceOnUse"
       id="clipPath4261"><path
         d="m 0,0 595.276,0 0,841.89 L 0,841.89 0,0 Z"
         id="path4263"
         inkscape:connector-curvature="0" /></clipPath><clipPath
       clipPathUnits="userSpaceOnUse"
       id="clipPath4289"><path
         d="m 0,0 595.276,0 0,841.89 L 0,841.89 0,0 Z"
         id="path4291"
         inkscape:connector-curvature="0" /></clipPath><clipPath
       clipPathUnits="userSpaceOnUse"
       id="clipPath4389"><path
         d="m 0,0 595.276,0 0,841.89 L 0,841.89 0,0 Z"
         id="path4391"
         inkscape:connector-curvature="0" /></clipPath><clipPath
       clipPathUnits="userSpaceOnUse"
       id="clipPath4417"><path
         d="m 0,0 595.276,0 0,841.89 L 0,841.89 0,0 Z"
         id="path4419"
         inkscape:connector-curvature="0" /></clipPath></defs><sodipodi:namedview
     pagecolor="#000000"
     bordercolor="#666666"
     borderopacity="1"
     objecttolerance="10"
     gridtolerance="10"
     guidetolerance="10"
     inkscape:pageopacity="0"
     inkscape:pageshadow="2"
     inkscape:window-width="1920"
     inkscape:window-height="1009"
     id="namedview4157"
     showgrid="false"
     inkscape:zoom="0.47514249"
     inkscape:cx="235.32581"
     inkscape:cy="612.7201"
     inkscape:window-x="0"
     inkscape:window-y="34"
     inkscape:window-maximized="1"
     inkscape:current-layer="g4163" /><g
     id="g4163"
     inkscape:groupmode="layer"
     inkscape:label="Logo Freifunk Bingen(1)"
     transform="matrix(1.25,0,0,-1.25,0,1052.3625)"><rect
       style="opacity:0.95;fill:#000000;fill-opacity:1;fill-rule:nonzero;stroke:none;stroke-width:5.5999999;stroke-linecap:round;stroke-linejoin:round;stroke-miterlimit:4;stroke-dasharray:none;stroke-opacity:1"
       id="rect4534"
       width="609.50134"
       height="857.00604"
       x="-3.3674111"
       y="-841.85266"
       transform="scale(1,-1)" /><g
       id="g4301"
       transform="matrix(1.7930682,0,0,1.7930682,84.824829,178.13565)"><path
         d="m 0,0 0,21.557 3.039,0 0,3.972 -3.039,0 0,2.608 c 0,0.765 0.175,1.316 0.526,1.651 0.351,0.335 0.925,0.502 1.723,0.502 0.064,0 0.207,-0.024 0.431,-0.072 0.223,-0.048 0.502,-0.104 0.837,-0.167 l 0,4.163 c -0.447,0.127 -0.893,0.223 -1.34,0.287 -0.446,0.064 -0.917,0.096 -1.411,0.096 -1.835,0 -3.215,-0.507 -4.14,-1.52 -0.925,-1.013 -1.387,-2.532 -1.387,-4.557 l 0,-2.991 -2.704,0 0,-3.972 2.704,0 L -4.761,0 0,0 Z"
         style="fill:none;stroke:#231f20;stroke-width:1;stroke-linecap:butt;stroke-linejoin:miter;stroke-miterlimit:2;stroke-dasharray:none;stroke-opacity:1"
         id="path4303"
         inkscape:connector-curvature="0" /></g><g
       id="g4305"
       transform="matrix(1.7930682,0,0,1.7930682,102.45857,178.13565)"><path
         d="m 0,0 0,16.7 c 0,1.276 0.355,2.281 1.065,3.015 0.709,0.733 1.678,1.1 2.907,1.1 0.302,0 0.582,-0.028 0.837,-0.083 0.255,-0.056 0.494,-0.14 0.718,-0.252 l 0,5.336 -0.479,0 C 3.98,25.816 3.022,25.501 2.177,24.871 1.332,24.241 0.606,23.304 0,22.06 l 0,3.469 -4.809,0 L -4.809,0 0,0 Z"
         style="fill:none;stroke:#231f20;stroke-width:1;stroke-linecap:butt;stroke-linejoin:miter;stroke-miterlimit:2;stroke-dasharray:none;stroke-opacity:1"
         id="path4307"
         inkscape:connector-curvature="0" /></g><g
       id="g4309"
       transform="matrix(1.7930682,0,0,1.7930682,123.1384,211.68378)"><path
         d="M 0,0 C 0,1.068 0.163,1.834 0.49,2.297 0.817,2.759 1.356,2.991 2.105,2.991 2.823,2.991 3.346,2.759 3.673,2.297 3.999,1.834 4.163,1.068 4.163,0 l 0,-2.584 L 0,-2.584 0,0 Z m -3.074,-17.298 c 1.22,-1.404 2.89,-2.106 5.012,-2.106 2.36,0 4.135,0.662 5.323,1.986 1.189,1.324 1.783,3.294 1.783,5.91 l 0,1.914 -4.881,0 0,-1.771 c 0,-1.499 -0.155,-2.468 -0.466,-2.907 -0.312,-0.439 -0.858,-0.658 -1.639,-0.658 -0.75,0 -1.28,0.259 -1.591,0.778 C 0.156,-13.634 0,-12.705 0,-11.365 l 0,4.809 9.044,0 0,6.508 c 0,2.424 -0.582,4.283 -1.747,5.575 -1.164,1.292 -2.831,1.938 -5,1.938 -2.122,0 -3.852,-0.698 -5.192,-2.094 -1.34,-1.396 -2.01,-3.202 -2.01,-5.419 l 0,-11.46 c 0,-2.457 0.61,-4.387 1.831,-5.79 z"
         style="fill:none;stroke:#231f20;stroke-width:1;stroke-linecap:butt;stroke-linejoin:miter;stroke-miterlimit:2;stroke-dasharray:none;stroke-opacity:1"
         id="path4311"
         inkscape:connector-curvature="0" /></g><path
       d="m 153.34227,240.17061 -8.62286,0 0,-8.5368 8.62286,0 0,8.5368 z m 0,-16.25954 -8.62286,0 0,-45.77524 8.62286,0 0,45.77524 z"
       style="fill:none;stroke:#231f20;stroke-width:1.79306817;stroke-linecap:butt;stroke-linejoin:miter;stroke-miterlimit:2;stroke-dasharray:none;stroke-opacity:1"
       id="path4313"
       inkscape:connector-curvature="0" /><g
       id="g4315"
       transform="matrix(1.7930682,0,0,1.7930682,169.51736,178.13565)"><path
         d="m 0,0 0,21.557 3.039,0 0,3.972 -3.039,0 0,2.608 c 0,0.765 0.175,1.316 0.526,1.651 0.351,0.335 0.925,0.502 1.723,0.502 0.064,0 0.207,-0.024 0.431,-0.072 0.223,-0.048 0.502,-0.104 0.837,-0.167 l 0,4.163 c -0.447,0.127 -0.893,0.223 -1.34,0.287 -0.447,0.064 -0.917,0.096 -1.411,0.096 -1.835,0 -3.215,-0.507 -4.14,-1.52 -0.925,-1.013 -1.387,-2.532 -1.387,-4.557 l 0,-2.991 -2.704,0 0,-3.972 2.704,0 L -4.761,0 0,0 Z"
         style="fill:none;stroke:#231f20;stroke-width:1;stroke-linecap:butt;stroke-linejoin:miter;stroke-miterlimit:2;stroke-dasharray:none;stroke-opacity:1"
         id="path4317"
         inkscape:connector-curvature="0" /></g><g
       id="g4319"
       transform="matrix(1.7930682,0,0,1.7930682,194.18675,223.91053)"><path
         d="m 0,0 0,-19.404 c -0.447,-0.558 -0.937,-1.017 -1.471,-1.376 -0.535,-0.358 -0.978,-0.538 -1.328,-0.538 -0.447,0 -0.77,0.135 -0.969,0.407 -0.2,0.271 -0.299,0.709 -0.299,1.316 l 0,19.595 -4.762,0 0,-21.366 c 0,-1.515 0.279,-2.652 0.838,-3.409 0.558,-0.758 1.387,-1.137 2.488,-1.137 0.893,0 1.814,0.272 2.763,0.814 0.949,0.542 1.863,1.331 2.74,2.369 l 0,-2.8 4.737,0 L 4.737,0 0,0 Z"
         style="fill:none;stroke:#231f20;stroke-width:1;stroke-linecap:butt;stroke-linejoin:miter;stroke-miterlimit:2;stroke-dasharray:none;stroke-opacity:1"
         id="path4321"
         inkscape:connector-curvature="0" /></g><g
       id="g4323"
       transform="matrix(1.7930682,0,0,1.7930682,217.82674,178.13565)"><path
         d="m 0,0 0,19.356 c 0.446,0.558 0.929,1.017 1.448,1.376 0.518,0.359 0.952,0.538 1.303,0.538 0.479,0 0.81,-0.136 0.993,-0.407 C 3.928,20.592 4.02,20.058 4.02,19.26 l 0,-19.26 4.761,0 0,21.366 c 0,1.499 -0.28,2.623 -0.838,3.373 -0.558,0.75 -1.396,1.125 -2.512,1.125 -0.877,0 -1.782,-0.268 -2.715,-0.802 C 1.782,24.528 0.877,23.75 0,22.729 l 0,2.8 -4.809,0 L -4.809,0 0,0 Z"
         style="fill:none;stroke:#231f20;stroke-width:1;stroke-linecap:butt;stroke-linejoin:miter;stroke-miterlimit:2;stroke-dasharray:none;stroke-opacity:1"
         id="path4325"
         inkscape:connector-curvature="0" /></g><g
       id="g4327"
       transform="matrix(1.7930682,0,0,1.7930682,248.50237,178.13565)"><path
         d="M 0,0 0,9.642 1.627,12.633 4.953,0 9.762,0 4.713,16.963 l 4.738,8.566 -5.097,0 L 0,16.174 l 0,18.423 -4.809,0 L -4.809,0 0,0 Z"
         style="fill:none;stroke:#231f20;stroke-width:1;stroke-linecap:butt;stroke-linejoin:miter;stroke-miterlimit:2;stroke-dasharray:none;stroke-opacity:1"
         id="path4329"
         inkscape:connector-curvature="0" /></g><path
       d="m 288.31548,204.21959 -20.37822,0 0,-6.47835 20.37822,0 0,6.47835 z"
       style="fill:none;stroke:#231f20;stroke-width:1.79306817;stroke-linecap:butt;stroke-linejoin:miter;stroke-miterlimit:2;stroke-dasharray:none;stroke-opacity:1"
       id="path4331"
       inkscape:connector-curvature="0" /><g
       id="g4333"
       transform="matrix(1.7930682,0,0,1.7930682,302.73211,215.3732)"><path
         d="m 0,0 c 0.319,0.351 0.642,0.61 0.969,0.778 0.327,0.167 0.658,0.251 0.993,0.251 0.638,0 1.124,-0.224 1.459,-0.67 0.335,-0.447 0.503,-1.101 0.503,-1.962 l 0,-13.183 c 0,-0.814 -0.136,-1.4 -0.407,-1.759 -0.271,-0.359 -0.694,-0.538 -1.268,-0.538 -0.399,0 -0.778,0.092 -1.136,0.275 -0.359,0.183 -0.73,0.482 -1.113,0.897 L 0,0 Z m 0,-20.768 0,1.962 c 0.622,-0.781 1.296,-1.36 2.022,-1.734 0.725,-0.375 1.551,-0.563 2.476,-0.563 1.403,0 2.476,0.483 3.218,1.448 0.742,0.965 1.113,2.357 1.113,4.175 l 0,14.164 C 8.829,0.773 8.434,2.365 7.644,3.457 6.855,4.55 5.71,5.096 4.211,5.096 3.477,5.096 2.751,4.893 2.034,4.486 1.316,4.079 0.638,3.485 0,2.704 l 0,11.125 -4.809,0 0,-34.597 4.809,0 z"
         style="fill:none;stroke:#231f20;stroke-width:1;stroke-linecap:butt;stroke-linejoin:miter;stroke-miterlimit:2;stroke-dasharray:none;stroke-opacity:1"
         id="path4335"
         inkscape:connector-curvature="0" /></g><path
       d="m 332.76385,240.17061 -8.62287,0 0,-8.5368 8.62287,0 0,8.5368 z m 0,-16.25954 -8.62287,0 0,-45.77524 8.62287,0 0,45.77524 z"
       style="fill:none;stroke:#231f20;stroke-width:1.79306817;stroke-linecap:butt;stroke-linejoin:miter;stroke-miterlimit:2;stroke-dasharray:none;stroke-opacity:1"
       id="path4337"
       inkscape:connector-curvature="0" /><g
       id="g4339"
       transform="matrix(1.7930682,0,0,1.7930682,347.86686,178.13565)"><path
         d="m 0,0 0,19.356 c 0.446,0.558 0.929,1.017 1.448,1.376 0.518,0.359 0.952,0.538 1.303,0.538 0.479,0 0.81,-0.136 0.993,-0.407 C 3.928,20.592 4.02,20.058 4.02,19.26 l 0,-19.26 4.761,0 0,21.366 c 0,1.499 -0.279,2.623 -0.838,3.373 -0.558,0.75 -1.396,1.125 -2.512,1.125 -0.877,0 -1.782,-0.268 -2.715,-0.802 C 1.782,24.528 0.877,23.75 0,22.729 l 0,2.8 -4.809,0 L -4.809,0 0,0 Z"
         style="fill:none;stroke:#231f20;stroke-width:1;stroke-linecap:butt;stroke-linejoin:miter;stroke-miterlimit:2;stroke-dasharray:none;stroke-opacity:1"
         id="path4341"
         inkscape:connector-curvature="0" /></g><g
       id="g4343"
       transform="matrix(1.7930682,0,0,1.7930682,382.87544,198.34174)"><path
         d="m 0,0 c -0.351,-0.431 -0.877,-0.646 -1.579,-0.646 -0.702,0 -1.22,0.211 -1.555,0.634 -0.335,0.422 -0.503,1.08 -0.503,1.974 l 0,5.934 c 0,0.893 0.168,1.546 0.503,1.961 0.335,0.415 0.853,0.622 1.555,0.622 0.702,0 1.228,-0.211 1.579,-0.634 C 0.351,9.423 0.526,8.773 0.526,7.896 l 0,-5.934 C 0.526,1.085 0.351,0.431 0,0 Z m 2.261,-12.346 c 0.869,-0.303 1.304,-0.789 1.304,-1.459 0,-0.606 -0.391,-1.105 -1.172,-1.496 -0.782,-0.39 -1.795,-0.586 -3.039,-0.586 -0.989,0 -1.81,0.2 -2.464,0.598 -0.655,0.399 -0.981,0.87 -0.981,1.412 0,0.399 0.147,0.762 0.442,1.089 0.295,0.327 0.754,0.634 1.376,0.921 2.153,-0.016 3.664,-0.176 4.534,-0.479 z m -9.606,6.281 c -0.447,-0.662 -0.67,-1.4 -0.67,-2.213 0,-0.702 0.255,-1.308 0.765,-1.819 0.511,-0.51 1.236,-0.885 2.178,-1.124 -0.798,-0.319 -1.448,-0.622 -1.95,-0.909 -0.503,-0.287 -0.913,-0.59 -1.232,-0.91 -0.335,-0.335 -0.599,-0.709 -0.79,-1.124 -0.191,-0.415 -0.287,-0.821 -0.287,-1.22 0,-1.276 0.702,-2.273 2.105,-2.991 1.404,-0.718 3.366,-1.077 5.886,-1.077 3.03,0 5.324,0.507 6.879,1.52 1.555,1.013 2.333,2.516 2.333,4.51 0,1.659 -0.487,2.954 -1.46,3.888 -0.973,0.933 -2.496,1.551 -4.57,1.854 -0.67,0.096 -1.563,0.175 -2.679,0.239 -1.867,0.111 -2.8,0.534 -2.8,1.268 0,0.255 0.096,0.522 0.287,0.802 0.192,0.279 0.471,0.554 0.838,0.825 0.032,-0.016 0.072,-0.024 0.119,-0.024 0.495,-0.048 0.877,-0.08 1.149,-0.096 1.977,0 3.493,0.59 4.546,1.771 1.052,1.18 1.579,2.879 1.579,5.096 l 0,5.695 c 0,0.271 -0.004,0.55 -0.012,0.837 -0.008,0.287 -0.02,0.574 -0.036,0.861 0.191,0.319 0.443,0.562 0.754,0.73 0.311,0.167 0.666,0.251 1.064,0.251 0.112,0 0.252,-0.012 0.419,-0.036 0.168,-0.024 0.355,-0.052 0.562,-0.083 l 0,4.139 C 6.787,14.515 6.065,14.264 5.467,13.841 4.869,13.418 4.394,12.824 4.043,12.059 3.246,13.031 2.4,13.749 1.507,14.212 c -0.893,0.462 -1.89,0.694 -2.99,0.694 -2.074,0 -3.681,-0.658 -4.821,-1.974 -1.141,-1.316 -1.711,-3.179 -1.711,-5.587 l 0,-5.096 c 0,-1.516 0.235,-2.724 0.706,-3.625 0.47,-0.901 1.271,-1.703 2.404,-2.404 -1.18,-0.862 -1.994,-1.623 -2.44,-2.285 z"
         style="fill:none;stroke:#231f20;stroke-width:1;stroke-linecap:butt;stroke-linejoin:miter;stroke-miterlimit:2;stroke-dasharray:none;stroke-opacity:1"
         id="path4345"
         inkscape:connector-curvature="0" /></g><g
       id="g4347"
       transform="matrix(1.7930682,0,0,1.7930682,406.42955,211.68378)"><path
         d="m 0,0 c 0,1.068 0.163,1.834 0.49,2.297 0.327,0.462 0.866,0.694 1.615,0.694 0.718,0 1.24,-0.232 1.568,-0.694 C 3.999,1.834 4.163,1.068 4.163,0 l 0,-2.584 L 0,-2.584 0,0 Z m -3.074,-17.298 c 1.22,-1.404 2.89,-2.106 5.012,-2.106 2.36,0 4.135,0.662 5.323,1.986 1.189,1.324 1.783,3.294 1.783,5.91 l 0,1.914 -4.881,0 0,-1.771 c 0,-1.499 -0.155,-2.468 -0.466,-2.907 -0.312,-0.439 -0.858,-0.658 -1.639,-0.658 -0.75,0 -1.28,0.259 -1.591,0.778 C 0.156,-13.634 0,-12.705 0,-11.365 l 0,4.809 9.044,0 0,6.508 c 0,2.424 -0.582,4.283 -1.747,5.575 -1.164,1.292 -2.831,1.938 -5,1.938 -2.122,0 -3.852,-0.698 -5.192,-2.094 -1.34,-1.396 -2.01,-3.202 -2.01,-5.419 l 0,-11.46 c 0,-2.457 0.61,-4.387 1.831,-5.79 z"
         style="fill:none;stroke:#231f20;stroke-width:1;stroke-linecap:butt;stroke-linejoin:miter;stroke-miterlimit:2;stroke-dasharray:none;stroke-opacity:1"
         id="path4349"
         inkscape:connector-curvature="0" /></g><g
       id="g4351"
       transform="matrix(1.7930682,0,0,1.7930682,436.63324,178.13565)"><path
         d="m 0,0 0,19.356 c 0.446,0.558 0.929,1.017 1.448,1.376 0.518,0.359 0.952,0.538 1.303,0.538 0.479,0 0.81,-0.136 0.993,-0.407 C 3.928,20.592 4.02,20.058 4.02,19.26 l 0,-19.26 4.761,0 0,21.366 c 0,1.499 -0.279,2.623 -0.838,3.373 -0.558,0.75 -1.396,1.125 -2.512,1.125 -0.877,0 -1.782,-0.268 -2.715,-0.802 C 1.782,24.528 0.877,23.75 0,22.729 l 0,2.8 -4.809,0 L -4.809,0 0,0 Z"
         style="fill:none;stroke:#231f20;stroke-width:1;stroke-linecap:butt;stroke-linejoin:miter;stroke-miterlimit:2;stroke-dasharray:none;stroke-opacity:1"
         id="path4353"
         inkscape:connector-curvature="0" /></g><path
       d="m 468.63897,187.87398 -9.13747,0 0,-9.73815 9.13747,0 0,9.73815 z"
       style="fill:none;stroke:#231f20;stroke-width:1.79306817;stroke-linecap:butt;stroke-linejoin:miter;stroke-miterlimit:2;stroke-dasharray:none;stroke-opacity:1"
       id="path4355"
       inkscape:connector-curvature="0" /><g
       id="g4357"
       transform="matrix(1.7930682,0,0,1.7930682,488.78248,185.30003)"><path
         d="m 0,0 c -0.359,-0.176 -0.746,-0.263 -1.16,-0.263 -0.575,0 -0.993,0.175 -1.257,0.526 -0.263,0.351 -0.394,0.925 -0.394,1.723 l 0,13.183 c 0,0.845 0.171,1.503 0.514,1.974 0.343,0.47 0.802,0.706 1.376,0.706 0.319,0 0.646,-0.088 0.981,-0.264 0.335,-0.175 0.678,-0.446 1.029,-0.813 l 0,-15.911 C 0.721,0.462 0.359,0.175 0,0 Z m 1.089,-3.996 4.761,0 0,34.597 -4.761,0 0,-11.125 c -0.639,0.781 -1.316,1.375 -2.034,1.782 -0.718,0.407 -1.444,0.61 -2.177,0.61 -1.5,0 -2.64,-0.546 -3.422,-1.639 -0.781,-1.092 -1.172,-2.684 -1.172,-4.773 l 0,-14.164 c 0,-1.834 0.363,-3.23 1.089,-4.187 0.725,-0.957 1.782,-1.436 3.17,-1.436 0.909,0 1.738,0.192 2.488,0.575 0.75,0.382 1.436,0.972 2.058,1.77 l 0,-2.01 z"
         style="fill:none;stroke:#231f20;stroke-width:1;stroke-linecap:butt;stroke-linejoin:miter;stroke-miterlimit:2;stroke-dasharray:none;stroke-opacity:1"
         id="path4359"
         inkscape:connector-curvature="0" /></g><g
       id="g4361"
       transform="matrix(1.7930682,0,0,1.7930682,513.77373,211.68378)"><path
         d="M 0,0 C 0,1.068 0.163,1.834 0.49,2.297 0.817,2.759 1.356,2.991 2.105,2.991 2.823,2.991 3.346,2.759 3.673,2.297 3.999,1.834 4.163,1.068 4.163,0 l 0,-2.584 L 0,-2.584 0,0 Z m -3.074,-17.298 c 1.22,-1.404 2.89,-2.106 5.012,-2.106 2.36,0 4.135,0.662 5.323,1.986 1.189,1.324 1.783,3.294 1.783,5.91 l 0,1.914 -4.881,0 0,-1.771 c 0,-1.499 -0.155,-2.468 -0.466,-2.907 -0.312,-0.439 -0.858,-0.658 -1.639,-0.658 -0.75,0 -1.28,0.259 -1.591,0.778 C 0.156,-13.634 0,-12.705 0,-11.365 l 0,4.809 9.044,0 0,6.508 c 0,2.424 -0.582,4.283 -1.747,5.575 -1.164,1.292 -2.831,1.938 -5,1.938 -2.122,0 -3.852,-0.698 -5.192,-2.094 -1.34,-1.396 -2.01,-3.202 -2.01,-5.419 l 0,-11.46 c 0,-2.457 0.61,-4.387 1.831,-5.79 z"
         style="fill:none;stroke:#231f20;stroke-width:1;stroke-linecap:butt;stroke-linejoin:miter;stroke-miterlimit:2;stroke-dasharray:none;stroke-opacity:1"
         id="path4363"
         inkscape:connector-curvature="0" /></g><text
       transform="scale(1,-1)"
       style="font-variant:normal;font-weight:normal;font-stretch:normal;font-size:87.86034393px;font-family:'AlternateGothic2 BT';-inkscape-font-specification:AlternateGothicNo2BT-Regular;writing-mode:lr-tb;fill:#ffffff;fill-opacity:1;fill-rule:nonzero;stroke:#ffffff;stroke-width:1.79306817"
       id="text4365"
       x="71.010857"
       y="-178.13565"><tspan
         x="71.010857 89.725098 111.07516 140.59625 155.70824 174.42247 205.08574 235.74899 264.47934 289.9588 320.00705 335.11902 365.78229 394.33691 423.85797 454.52124 471.65399 501.70224"
         y="-178.13565"
         sodipodi:role="line"
         id="tspan4367"
         style="stroke-width:1.79306817">freifunk-bingen.de</tspan></text>
<g
       id="g4369"
       transform="matrix(1.7930682,0,0,1.7930682,171.35633,371.62636)"
       style="fill:#ffffff"><path
         d="m 0,0 -4.682,130.579 11.705,2.341 2.341,-12.174 17.559,-0.468 1.17,15.92 16.856,-1.873 -2.341,37.926 18.729,-1.171 0,-140.233 7.024,-7.959 L 73.511,0.413 0,0 Z"
         style="fill:#ffffff;fill-opacity:1;fill-rule:nonzero;stroke:none"
         id="path4371"
         inkscape:connector-curvature="0" /></g><g
       id="g4373"
       transform="matrix(1.7930682,0,0,1.7930682,248.17568,687.20009)"
       style="fill:#ffffff"><path
         d="m 0,0 -1.171,11.003 3.746,-1.17 0,-4.917 3.746,0 0,4.917 3.746,0 0,-4.917 3.277,0 0,4.917 4.214,1.17 0,-12.174 L 0,0 Z"
         style="fill:#ffffff;fill-opacity:1;fill-rule:nonzero;stroke:none"
         id="path4375"
         inkscape:connector-curvature="0" /></g><g
       id="g4377"
       transform="matrix(1.7930682,0,0,1.7930682,162.12131,612.47971)"
       style="fill:#ffffff"><path
         d="m 0,0 0,10.301 4.448,-1.171 0,-3.98 5.619,0 0,5.151 3.746,1.873 0,-10.301 L 0,0 Z"
         style="fill:#ffffff;fill-opacity:1;fill-rule:nonzero;stroke:none"
         id="path4379"
         inkscape:connector-curvature="0" /></g><g
       id="g4381"
       transform="matrix(1.7930682,0,0,1.7930682,244.596,619.67727)"
       style="fill:#ffffff"><path
         d="m 0,0 0,10.301 -4.448,-1.171 0,-3.98 -5.619,0 0,7.492 -3.746,-0.468 0,-10.301 L 0,0 Z"
         style="fill:#ffffff;fill-opacity:1;fill-rule:nonzero;stroke:none"
         id="path4383"
         inkscape:connector-curvature="0" /></g><g
       id="g4393"
       transform="matrix(1.7930682,0,0,1.7930682,112.94802,351.47514)"
       style="fill:#000000"><path
         d="m 0,0 c 0,31.256 25.337,56.593 56.593,56.593 31.255,0 56.593,-25.337 56.593,-56.593 0,-31.256 -25.338,-56.593 -56.593,-56.593 C 25.337,-56.593 0,-31.256 0,0"
         style="fill:#000000;fill-opacity:1;fill-rule:nonzero;stroke:none"
         id="path4395"
         inkscape:connector-curvature="0" /></g><g
       id="g4397"
       transform="matrix(1.7930682,0,0,1.7930682,208.80797,391.62822)"
       style="fill:#000000"><path
         d="M 0,0 C 0,45.478 36.712,82.345 82,82.345 127.288,82.345 164,45.478 164,0 164,-45.478 127.288,-82.346 82,-82.346 36.712,-82.346 0,-45.478 0,0"
         style="fill:#000000;fill-opacity:1;fill-rule:nonzero;stroke:none"
         id="path4399"
         inkscape:connector-curvature="0" /></g><g
       id="g4401"
       transform="matrix(1.7930682,0,0,1.7930682,134.97444,351.47514)"
       style="stroke:#ffffff"><path
         d="M 0,0 C 0,24.574 19.837,44.495 44.309,44.495 68.78,44.495 88.617,24.574 88.617,0 88.617,-24.574 68.78,-44.495 44.309,-44.495 19.837,-44.495 0,-24.574 0,0 Z"
         style="fill:none;stroke:#ffffff;stroke-width:2.22300005;stroke-linecap:butt;stroke-linejoin:miter;stroke-miterlimit:3.86400008;stroke-dasharray:none;stroke-opacity:1"
         id="path4403"
         inkscape:connector-curvature="0" /></g><g
       id="g4405"
       transform="matrix(1.7930682,0,0,1.7930682,316.24593,369.58441)"
       style="fill:#ffffff"><path
         d="m 0,0 18.759,18.844 17.666,0 -12.506,-12.563 25.033,0 0,-12.56 -25.033,-0.002 12.506,-12.563 -17.666,0 L 0,0 Z"
         style="fill:#ffffff;fill-opacity:1;fill-rule:nonzero;stroke:none"
         id="path4407"
         inkscape:connector-curvature="0" /></g><g
       id="g4409"
       transform="matrix(1.7930682,0,0,1.7930682,216.48069,369.58441)"
       style="fill:#ffffff;stroke:#000000"><path
         d="m 0,0 -11.079,11.129 -10.434,0 7.386,-7.419 -14.783,-10e-4 0,-7.421 14.783,0.002 -7.386,-7.419 10.434,0 L 0,0 Z"
         style="fill:#ffffff;fill-opacity:1;fill-rule:nonzero;stroke:#000000"
         id="path4411"
         inkscape:connector-curvature="0" /></g><g
       id="g4413"
       style="stroke:#ffffff"
       transform="matrix(1.7930682,0,0,1.7930682,-255.19936,-165.15426)"><g
         id="g4415"
         clip-path="url(#clipPath4417)"
         style="stroke:#ffffff"><g
           id="g4421"
           transform="translate(278.7469,310.5194)"
           style="stroke:#ffffff"><path
             d="m 0,0 c 0,34.404 27.772,62.293 62.031,62.293 34.26,0 62.031,-27.889 62.031,-62.293 0,-34.403 -27.771,-62.292 -62.031,-62.292 C 27.772,-62.292 0,-34.403 0,0 Z"
             style="fill:none;stroke:#ffffff;stroke-width:13.35000038;stroke-linecap:butt;stroke-linejoin:miter;stroke-miterlimit:3.86400008;stroke-dasharray:none;stroke-opacity:1"
             id="path4423"
             inkscape:connector-curvature="0" /></g><g
           id="g4425"
           transform="translate(293.2399,310.5194)"
           style="stroke:#ffffff"><path
             d="M 0,0 C 0,26.366 21.283,47.739 47.538,47.739 73.793,47.739 95.076,26.366 95.076,0 95.076,-26.365 73.793,-47.738 47.538,-47.738 21.283,-47.738 0,-26.365 0,0 Z"
             style="fill:none;stroke:#ffffff;stroke-width:2.22300005;stroke-linecap:butt;stroke-linejoin:miter;stroke-miterlimit:3.86400008;stroke-dasharray:none;stroke-opacity:1"
             id="path4427"
             inkscape:connector-curvature="0" /></g></g></g></g></svg>